<svg width="40" height="40" viewBox="0 0 40 40" fill="none" xmlns="http://www.w3.org/2000/svg">
<g clip-path="url(#clip0_2_20368)">
<path d="M25.1083 18.6721V38.0894C25.1083 39.1446 24.2529 40.0001 23.1976 40.0001H15.5952C14.54 40.0001 13.6846 39.1446 13.6846 38.0894V18.6721C13.6846 17.9188 13.8439 17.1848 14.1425 16.5119C14.4411 15.8391 14.8797 15.2282 15.4383 14.7236C16.5554 13.7151 17.1928 12.2801 17.1928 10.7751V9.29374L17.3467 8.5277C17.3467 8.36811 17.476 8.23877 17.6356 8.23877H21.3103C21.4699 8.23877 21.5993 8.36811 21.5993 8.5277V10.7751C21.5993 11.5276 21.7586 12.2624 22.058 12.9353C22.3574 13.6081 22.7952 14.219 23.3546 14.7236C24.4709 15.7329 25.1083 17.1671 25.1083 18.6721Z" fill="#FDB441"/>
<path d="M23.3546 14.7236C22.7953 14.219 22.3574 13.6081 22.058 12.9353C21.7587 12.2624 21.5993 11.5276 21.5993 10.7751V8.5277C21.5993 8.36811 21.47 8.23877 21.3104 8.23877H19.6294C19.789 8.23877 19.9183 8.36811 19.9183 8.5277V10.7751C19.9183 11.5276 20.0777 12.2624 20.3771 12.9353C20.6765 13.6081 21.1143 14.219 21.6737 14.7236C22.79 15.7329 23.4274 17.1671 23.4274 18.6721V38.0894C23.4274 39.1446 22.5719 40.0001 21.5167 40.0001H23.1977C24.2529 40.0001 25.1083 39.1446 25.1083 38.0894V18.6721C25.1083 17.1671 24.4709 15.7329 23.3546 14.7236Z" fill="#FEA613"/>
<path d="M20.887 0H17.9054C17.7458 0 17.6165 0.129336 17.6165 0.288934V2.13771L19.495 2.4338L21.176 2.13771V0.288934C21.176 0.129336 21.0466 0 20.887 0Z" fill="#D8AB8C"/>
<path d="M20.887 0H19.2061C19.3657 0 19.495 0.129336 19.495 0.288934V2.13771H21.176V0.288934C21.176 0.129336 21.0466 0 20.887 0Z" fill="#C38778"/>
<path d="M21.5996 2.42663V8.53279L17.1929 9.29367V2.42663C17.1929 2.26703 17.3222 2.1377 17.4818 2.1377H21.3107C21.4702 2.1377 21.5996 2.26703 21.5996 2.42663Z" fill="#685E68"/>
<path d="M21.3108 2.1377H19.6299C19.7895 2.1377 19.9188 2.26703 19.9188 2.42663V8.82301L21.5998 8.53279V2.42663C21.5998 2.26703 21.4704 2.1377 21.3108 2.1377Z" fill="#554E56"/>
<path d="M19.7482 21.0626V34.2561C19.7482 34.9459 19.1888 35.5052 18.4991 35.5052H13.6846V19.8135H18.4991C19.1888 19.8135 19.7482 20.3728 19.7482 21.0626Z" fill="#FEE45A"/>
<path d="M18.4991 19.8135H16.8181C17.5079 19.8135 18.0672 20.3728 18.0672 21.0626V34.2561C18.0672 34.9459 17.5079 35.5052 16.8181 35.5052H18.4991C19.1888 35.5052 19.7482 34.9459 19.7482 34.2561V21.0626C19.7482 20.3728 19.1888 19.8135 18.4991 19.8135Z" fill="#FEDF30"/>
<path d="M37.7391 21.2509V38.0894C37.7391 39.1446 36.8837 40.0001 35.8285 40.0001H27.0188C25.9636 40.0001 25.1082 39.1446 25.1082 38.0894V21.2509C25.1082 21.2509 27.5944 19.7568 28.4086 18.0096C29.3405 16.0098 28.6164 6.51894 28.6164 5.71572V3.00184C28.6164 2.52458 29.0033 2.1377 29.4805 2.1377H33.3659C33.8431 2.1377 34.23 2.52458 34.23 3.00184V5.71572C34.23 5.955 33.5594 16.7696 34.0433 17.932C35.0814 20.4259 37.7391 21.2509 37.7391 21.2509Z" fill="#D8AB8C"/>
<path d="M37.7391 20.7719V21.2508L32.0309 22.9843C31.635 23.1046 31.2123 23.1046 30.8164 22.9843L25.1082 21.2508V20.7719C25.1082 20.0186 25.2675 19.2846 25.5661 18.6118C25.8647 17.9389 26.3033 17.3281 26.8619 16.8234C27.979 15.815 28.6164 14.38 28.6164 12.8749V5.71582H34.2301V12.8749C34.2301 13.6274 34.3894 14.3623 34.6888 15.0351C34.9882 15.7079 35.4261 16.3188 35.9854 16.8234C37.1017 17.8327 37.7391 19.2669 37.7391 20.7719Z" fill="#ECF4FF"/>
<path d="M32.5492 3.00184V5.71596H34.2302V3.00184C34.2302 2.52458 33.8433 2.1377 33.366 2.1377H31.6851C32.1623 2.1377 32.5492 2.52458 32.5492 3.00184Z" fill="#C38778"/>
<path d="M36.0584 38.0894C36.0584 39.1447 35.2029 40.0001 34.1477 40.0001H35.8287C36.8839 40.0001 37.7393 39.1447 37.7393 38.0894V21.251L36.0584 21.7615V38.0894Z" fill="#C38778"/>
<path d="M35.9854 16.8234C35.426 16.3188 34.9882 15.7079 34.6888 15.0351C34.3894 14.3623 34.23 13.6274 34.23 12.8749V5.71582H32.5491V12.8749C32.5491 13.6274 32.7084 14.3623 33.0078 15.0351C33.3072 15.7079 33.745 16.3188 34.3044 16.8234C35.4207 17.8327 36.0581 19.2669 36.0581 20.7719V21.7613L37.7391 21.2508V20.7719C37.7391 19.2669 37.1017 17.8327 35.9854 16.8234Z" fill="#DDEAFB"/>
<path d="M31.4236 35.9148C32.8682 35.9148 34.0392 33.7825 34.0392 31.1522C34.0392 28.5219 32.8682 26.3896 31.4236 26.3896C29.9791 26.3896 28.8081 28.5219 28.8081 31.1522C28.8081 33.7825 29.9791 35.9148 31.4236 35.9148Z" fill="#ECF4FF"/>
<path d="M31.4237 26.3892C31.1296 26.3892 30.8472 26.4789 30.5833 26.6419C31.6153 27.2795 32.3583 29.057 32.3583 31.1517C32.3583 33.2465 31.6153 35.024 30.5833 35.6616C30.8472 35.8247 31.1296 35.9143 31.4237 35.9143C32.8682 35.9143 34.0393 33.782 34.0393 31.1517C34.0393 28.5215 32.8682 26.3892 31.4237 26.3892Z" fill="#DDEAFB"/>
<path d="M13.6845 14.6019V16.7494L13.2846 24.1758L13.6845 30.4758V38.0894C13.6845 39.1446 12.829 40 11.7738 40H4.17141C3.11619 40 2.26074 39.1446 2.26074 38.0894V33.0729L2.87048 26.3893L2.26074 19.3464V14.6019C2.26074 13.8485 2.4201 13.1145 2.71869 12.4417C3.01728 11.7689 3.45591 11.158 4.01446 10.6534C5.13157 9.64493 5.76899 8.20992 5.76899 6.70489V0.735711C5.76899 0.576113 5.89833 0.446777 6.05792 0.446777H9.8865C10.0461 0.446777 10.1754 0.576113 10.1754 0.735711V6.70489C10.1754 7.4574 10.3348 8.19221 10.6342 8.86505C10.9336 9.53788 11.3714 10.1487 11.9308 10.6534C13.0471 11.6626 13.6845 13.0968 13.6845 14.6019Z" fill="#02905D"/>
<path d="M11.9308 10.6534C11.3714 10.1487 10.9336 9.53788 10.6342 8.86505C10.3348 8.19221 10.1755 7.4574 10.1755 6.70489V0.735711C10.1755 0.576113 10.0461 0.446777 9.88653 0.446777H8.20557C8.36516 0.446777 8.4945 0.576113 8.4945 0.735711V6.70489C8.4945 7.4574 8.65386 8.19221 8.95325 8.86505C9.25265 9.53788 9.69048 10.1487 10.2498 10.6534C11.3661 11.6626 12.0036 13.0968 12.0036 14.6019V38.0894C12.0036 39.1446 11.1481 40 10.0929 40H11.7739C12.8291 40 13.6845 39.1446 13.6845 38.0894V30.4758L13.2846 24.1758L13.6845 16.7494V14.6019C13.6845 13.0968 13.0471 11.6626 11.9308 10.6534Z" fill="#017B4E"/>
<path d="M10.0433 5.24792H5.90211C5.18911 5.24792 4.61108 4.66989 4.61108 3.95689V3.83399C4.61108 3.121 5.18911 2.54297 5.90211 2.54297H10.0434C10.7564 2.54297 11.3344 3.121 11.3344 3.83399V3.95689C11.3344 4.66989 10.7564 5.24792 10.0433 5.24792Z" fill="#FB5858"/>
<path d="M10.0432 2.54297H8.48706C9.20006 2.54297 9.77809 3.121 9.77809 3.83408V3.95697C9.77809 4.66997 9.20006 5.248 8.48706 5.248H10.0432C10.7562 5.248 11.3343 4.66997 11.3343 3.95697V3.83408C11.3343 3.121 10.7563 2.54297 10.0432 2.54297Z" fill="#F44545"/>
<path d="M13.6845 30.4759L2.26074 33.073V19.3465L13.6845 16.7495V30.4759Z" fill="#FB5858"/>
<path d="M12.0034 17.1316V30.8581L13.6844 30.4759V16.7495L12.0034 17.1316Z" fill="#F44545"/>
<path d="M32.7869 19.7546H30.0604C29.727 19.7546 29.4568 19.4843 29.4568 19.151C29.4568 18.8176 29.727 18.5474 30.0604 18.5474H32.7869C33.1203 18.5474 33.3905 18.8176 33.3905 19.151C33.3905 19.4843 33.1204 19.7546 32.7869 19.7546Z" fill="#FDB441"/>
<path d="M8.05306 29.7189C6.36276 29.7189 4.98755 28.3438 4.98755 26.6534C4.98755 26.3201 5.25781 26.0498 5.59117 26.0498C5.92453 26.0498 6.19479 26.3201 6.19479 26.6534C6.19479 27.6781 7.02835 28.5117 8.05306 28.5117C9.07777 28.5117 9.91133 27.6781 9.91133 26.6534C9.91133 26.3201 10.1816 26.0498 10.515 26.0498C10.8483 26.0498 11.1186 26.3201 11.1186 26.6534C11.1186 28.3438 9.74336 29.7189 8.05306 29.7189Z" fill="#ECF4FF"/>
<path d="M10.515 23.7726C10.1816 23.7726 9.91133 23.5024 9.91133 23.169C9.91133 22.1444 9.07777 21.3108 8.05306 21.3108C7.02835 21.3108 6.19479 22.1443 6.19479 23.169C6.19479 23.5024 5.92453 23.7726 5.59117 23.7726C5.25781 23.7726 4.98755 23.5024 4.98755 23.169C4.98755 21.4787 6.36268 20.1035 8.05306 20.1035C9.74344 20.1035 11.1186 21.4786 11.1186 23.169C11.1186 23.5024 10.8483 23.7726 10.515 23.7726Z" fill="#ECF4FF"/>
</g>
<defs>
<clipPath id="clip0_2_20368">
<rect width="40" height="40" fill="white"/>
</clipPath>
</defs>
</svg>
