<svg width="40" height="40" viewBox="0 0 40 40" fill="none" xmlns="http://www.w3.org/2000/svg">
<path d="M31.7885 22.5791C32.194 22.5791 32.5258 22.9109 32.5258 23.3163V38.0542C32.5258 38.4597 32.194 38.7914 31.7885 38.7914H8.21208C7.8066 38.7914 7.47485 38.4597 7.47485 38.0542V23.3163C7.47485 22.9109 7.8066 22.5791 8.21208 22.5791H31.7885Z" fill="#967ADC"/>
<path d="M33.2631 18.1636C33.6685 18.1636 34.0003 18.4953 34.0003 18.9008V22.5795C34.0003 22.985 33.6685 23.3168 33.2631 23.3168H10.4732C10.0678 23.3168 9.40425 23.3168 8.99878 23.3168H6.73771C6.33224 23.3168 6.00049 22.985 6.00049 22.5795V18.9008C6.00049 18.4953 6.33224 18.1636 6.73771 18.1636H18.3203H19.7947H33.2631Z" fill="#AC92EC"/>
<path d="M17.0513 23.3179H22.9491V38.7922H17.0513V23.3179Z" fill="#CCD1D9"/>
<path d="M22.9488 23.3094V23.3168H17.051V18.1636H22.9488V23.3094Z" fill="#E6E9ED"/>
<path d="M20.0002 15.2148C21.6294 15.2148 22.9491 16.5345 22.9491 18.1637H17.0513C17.0513 16.5345 18.3709 15.2148 20.0002 15.2148Z" fill="#E6E9ED"/>
<path d="M28.847 12.2666C30.4763 12.2666 31.7959 13.5862 31.7959 15.2155C31.7959 16.8455 30.4763 18.1644 28.847 18.1644H22.9492C22.9492 14.9059 25.5885 12.2666 28.847 12.2666Z" fill="#CCD1D9"/>
<path d="M11.1532 12.2666C14.4118 12.2666 17.051 14.9059 17.051 18.1644H11.1532C9.52398 18.1644 8.20435 16.8455 8.20435 15.2155C8.20435 13.5862 9.52398 12.2666 11.1532 12.2666Z" fill="#CCD1D9"/>
<path d="M22.2046 8.65723V11.6061H17.7886V8.65723H20.0002H22.2046Z" fill="#CCD1D9"/>
<path d="M23.6788 11.6055V15.2916H16.314V11.6055H17.7884H22.2044H23.6788Z" fill="#E6E9ED"/>
<path d="M23.679 15.2915V11.6054H22.2046V8.65651H20.0003H17.7886V11.6054H16.3141V15.2915H23.679ZM28.847 10.8682C28.847 15.1957 25.7359 18.7933 21.6222 19.5601L19.9929 21.1893L18.3636 19.5601C14.2573 18.7933 11.1536 15.1957 11.1536 10.8682C11.1536 5.98775 15.1125 2.02148 20.0003 2.02148C24.8807 2.02148 28.847 5.98775 28.847 10.8682Z" fill="#EC87C0"/>
<path d="M19.9967 9.39421C19.5891 9.39421 19.2595 9.06467 19.2595 8.65699V7.18254C19.2595 6.77485 19.5891 6.44531 19.9967 6.44531C20.4044 6.44531 20.734 6.77485 20.734 7.18254V8.65699C20.734 9.06467 20.4044 9.39421 19.9967 9.39421Z" fill="#656D78"/>
<path d="M19.9967 6.44556C19.5891 6.44556 19.2595 6.11602 19.2595 5.70834V4.97111C19.2595 4.56343 19.5891 4.23389 19.9967 4.23389C20.4044 4.23389 20.734 4.56343 20.734 4.97111V5.70834C20.734 6.11602 20.4044 6.44556 19.9967 6.44556Z" fill="#FFCE54"/>
<path d="M19.9958 21.927C19.807 21.927 19.6183 21.8547 19.4746 21.7109L18.0023 20.2394C13.5915 19.3054 10.4133 15.4018 10.4133 10.8701C10.4133 5.58563 14.7128 1.28613 19.9973 1.28613C25.2817 1.28613 29.5812 5.58563 29.5812 10.8701C29.5812 15.404 26.4015 19.3076 21.9878 20.2402L20.517 21.7109C20.3732 21.8547 20.1845 21.927 19.9958 21.927ZM19.9973 2.76058C15.526 2.76058 11.8878 6.39879 11.8878 10.8701C11.8878 14.77 14.6686 18.1199 18.5014 18.835C18.6474 18.8623 18.7823 18.9338 18.887 19.0385L19.9958 20.1473L21.1038 19.0392C21.2093 18.9338 21.3434 18.863 21.4901 18.8358C25.3237 18.1221 28.1067 14.7722 28.1067 10.8701C28.1067 6.39879 24.4693 2.76058 19.9973 2.76058Z" fill="#EC87C0"/>
<path d="M22.2067 12.3425H17.7863C17.3786 12.3425 17.0491 12.013 17.0491 11.6053V8.65715C17.0491 8.24946 17.3786 7.91992 17.7863 7.91992H22.2067C22.6144 7.91992 22.9439 8.24946 22.9439 8.65715V11.6053C22.9439 12.013 22.6144 12.3425 22.2067 12.3425ZM18.5235 10.8681H21.4695V9.39437H18.5235V10.8681Z" fill="#CCD1D9"/>
<path d="M23.6812 16.0287H16.3119C15.9042 16.0287 15.5747 15.6992 15.5747 15.2915V11.6054C15.5747 11.1977 15.9042 10.8682 16.3119 10.8682H23.6812C24.0889 10.8682 24.4185 11.1977 24.4185 11.6054V15.2915C24.4185 15.6992 24.0889 16.0287 23.6812 16.0287ZM17.0492 14.5543H22.944V12.3426H17.0492V14.5543Z" fill="#E6E9ED"/>
<path d="M24.4184 16.0291H15.5746C15.1669 16.0291 14.8374 15.6996 14.8374 15.2919C14.8374 14.8842 15.1669 14.5547 15.5746 14.5547H24.4184C24.8261 14.5547 25.1556 14.8842 25.1556 15.2919C25.1556 15.6996 24.8261 16.0291 24.4184 16.0291Z" fill="#656D78"/>
</svg>
