<svg width="40" height="40" viewBox="0 0 40 40" fill="none" xmlns="http://www.w3.org/2000/svg">
<g clip-path="url(#clip0_2_20302)">
<path d="M8.63146 8.42814C8.68911 8.09993 8.4699 7.78696 8.14161 7.72907C7.81318 7.67095 7.50005 7.89048 7.44216 8.21884C7.42521 8.31478 7.1399 9.9772 7.30763 11.777L5.38911 6.20243C5.2806 5.88712 4.93693 5.71939 4.62169 5.82798C4.30638 5.9365 4.13872 6.28009 4.24724 6.5954L5.95193 11.5486C5.91513 11.4822 5.87779 11.4156 5.83951 11.3484C4.73865 9.41751 3.61458 8.2215 2.49857 7.79368C2.1874 7.67423 1.8381 7.83001 1.71865 8.14134C1.59927 8.45267 1.7549 8.80189 2.0663 8.92126C3.40146 9.43314 4.71497 11.6654 5.48107 13.2678L5.92896 14.4074L8.85318 13.4416L8.57568 12.2028C8.2974 10.386 8.62732 8.45204 8.63146 8.42814Z" fill="#77D057"/>
<path d="M32.1696 11.3467H25.9113L23.7861 15.4213C23.7114 15.5646 23.6724 15.7237 23.6724 15.8853V26.4807C23.6724 27.0348 24.1216 27.4839 24.6756 27.4839H33.4051C33.9592 27.4839 34.4084 27.0347 34.4084 26.4807V15.8853C34.4084 15.7237 34.3694 15.5646 34.2946 15.4213L32.1696 11.3467Z" fill="#E9EAEB"/>
<path d="M34.2948 15.4213L32.1696 11.3467H27.8252L29.9504 15.4213C30.0251 15.5646 30.0642 15.7237 30.0642 15.8853V26.4807C30.0642 27.0349 29.615 27.484 29.0609 27.484H33.4053C33.9594 27.484 34.4086 27.0348 34.4086 26.4807V15.8853C34.4086 15.7237 34.3695 15.5645 34.2948 15.4213Z" fill="#C8CBCE"/>
<path d="M33.2211 12.0555H24.8601C24.5241 12.0555 24.2517 11.7831 24.2517 11.4471V10.5547C24.2517 10.2187 24.5241 9.94629 24.8601 9.94629H33.2211C33.5571 9.94629 33.8295 10.2187 33.8295 10.5547V11.4471C33.8294 11.7831 33.5571 12.0555 33.2211 12.0555Z" fill="#FD9727"/>
<path d="M33.2213 9.94629H29.469V12.0555H33.2213C33.5573 12.0555 33.8297 11.7831 33.8297 11.4471V10.5546C33.8296 10.2187 33.5573 9.94629 33.2213 9.94629Z" fill="#F9662B"/>
<path d="M31.9965 23.9461H26.0854C25.9482 23.9461 25.8369 23.8349 25.8369 23.6977V17.7865C25.8369 17.6493 25.9482 17.5381 26.0854 17.5381H31.9965C32.1337 17.5381 32.245 17.6493 32.245 17.7865V23.6977C32.245 23.8349 32.1337 23.9461 31.9965 23.9461Z" fill="#5BDCFD"/>
<path d="M31.9966 17.5381H30.0647V23.9461H31.9966C32.1338 23.9461 32.245 23.8349 32.245 23.6977V17.7865C32.245 17.6493 32.1338 17.5381 31.9966 17.5381Z" fill="#48C7E5"/>
<path d="M20.9892 7.26096V0.422363H17.4883V7.26103C17.4883 8.51322 17.008 9.71775 16.1465 10.6264C15.2849 11.5352 14.8047 12.7396 14.8047 13.9918V33.8441C14.8047 34.5235 15.3555 35.0742 16.0348 35.0742H22.4426C23.122 35.0742 23.6727 34.5235 23.6727 33.8441V13.9918C23.6727 12.7396 23.1925 11.5351 22.3309 10.6264C21.4695 9.71768 20.9892 8.51314 20.9892 7.26096Z" fill="#602952"/>
<path d="M22.3307 10.6264C21.4691 9.71768 20.9889 8.51322 20.9889 7.26103V0.422363H17.4879V7.26103C17.4879 7.95814 17.3387 8.64025 17.0581 9.26502C17.2815 9.76252 17.5881 10.2236 17.9701 10.6265C18.8316 11.5353 19.3119 12.7397 19.3119 13.9919V33.8442C19.3119 34.5235 18.7611 35.0743 18.0817 35.0743H22.4423C23.1217 35.0743 23.6725 34.5235 23.6725 33.8442V13.9918C23.6724 12.7396 23.1922 11.5351 22.3307 10.6264Z" fill="#4C1C40"/>
<path d="M21.2615 6.06258V0.207344C21.2615 0.0928125 21.1687 0 21.0541 0H17.4237C17.3091 0 17.2163 0.0928125 17.2163 0.207344V6.06258C17.2163 6.17711 17.3091 6.26992 17.4237 6.26992H21.0541C21.1687 6.26984 21.2615 6.17703 21.2615 6.06258Z" fill="#FDC74F"/>
<path d="M23.6729 26.0573H18.4762C18.1377 26.0573 17.8633 25.7829 17.8633 25.4444V16.7213C17.8633 16.3828 18.1377 16.1084 18.4762 16.1084H23.6729V26.0573Z" fill="#E8B19C"/>
<path d="M23.6721 16.1084H19.3115V26.0576H23.6721V16.1084Z" fill="#D09C84"/>
<path d="M16.2924 34.7325L12.8931 14.8637C12.5959 13.1265 10.8125 12.0697 9.14602 12.6433L5.24993 13.9841C3.58344 14.5576 2.82813 16.4882 3.66297 18.0403L13.2114 35.7929C14.0974 37.4402 16.6079 36.5762 16.2924 34.7325Z" fill="#FD9727"/>
<path d="M16.2929 34.7325L12.8936 14.8637C12.5964 13.1265 10.813 12.0697 9.14649 12.6433L7.70142 13.1406L13.2118 35.7929C14.0979 37.4402 16.6084 36.5762 16.2929 34.7325Z" fill="#F9662B"/>
<path d="M31.2532 40.0003H8.74648C7.67883 40.0003 6.75461 39.2581 6.52414 38.2156L3.18164 23.0981H36.818L33.4756 38.2156C33.2451 39.2581 32.3209 40.0003 31.2532 40.0003Z" fill="#FDC74F"/>
<path d="M32.471 23.0981L29.1286 38.2156C28.8981 39.2581 27.9739 40.0003 26.9062 40.0003H31.2535C32.3213 40.0003 33.2454 39.2581 33.4759 38.2156L36.8183 23.0981H32.471Z" fill="#FCA629"/>
<path d="M38.1243 25.6017H1.87526C1.4969 25.6017 1.19019 25.295 1.19019 24.9166V23.2144C1.19019 22.836 1.4969 22.5293 1.87526 22.5293H38.1242C38.5026 22.5293 38.8093 22.836 38.8093 23.2144V24.9166C38.8094 25.295 38.5027 25.6017 38.1243 25.6017Z" fill="#FC502A"/>
<path d="M38.1243 22.5293H34.4487V25.6018H38.1243C38.5026 25.6018 38.8094 25.2951 38.8094 24.9167V23.2145C38.8094 22.836 38.5026 22.5293 38.1243 22.5293Z" fill="#E60D28"/>
<path d="M16.6965 36.3123C16.7188 36.6306 16.9839 36.8738 17.2981 36.8738C17.3124 36.8738 17.3267 36.8733 17.341 36.8723C17.6737 36.8489 17.9244 36.5604 17.901 36.2277L17.3856 28.8868C17.3622 28.5541 17.0735 28.3029 16.741 28.3268C16.4083 28.3501 16.1576 28.6387 16.181 28.9714L16.6965 36.3123Z" fill="white"/>
<path d="M12.037 36.9854C11.9951 36.9943 11.9532 36.9985 11.9119 36.9985C11.6325 36.9985 11.3816 36.8034 11.3217 36.5191L9.7753 29.1781C9.70655 28.8519 9.91538 28.5316 10.2416 28.4629C10.568 28.3938 10.8881 28.603 10.9569 28.9292L12.5033 36.2702C12.5721 36.5964 12.3633 36.9166 12.037 36.9854Z" fill="white"/>
<path d="M23.9072 36.3123C23.8849 36.6306 23.6198 36.8738 23.3056 36.8738C23.2914 36.8738 23.2771 36.8733 23.2627 36.8723C22.93 36.8489 22.6793 36.5604 22.7027 36.2277L23.2181 28.8868C23.2415 28.5541 23.5303 28.3029 23.8628 28.3268C24.1954 28.3501 24.4461 28.6387 24.4228 28.9714L23.9072 36.3123Z" fill="white"/>
<path d="M28.5668 36.9854C28.6088 36.9943 28.6506 36.9985 28.6919 36.9985C28.9713 36.9985 29.2222 36.8034 29.2821 36.5191L30.8285 29.1781C30.8973 28.8519 30.6884 28.5316 30.3622 28.4629C30.0358 28.3938 29.7157 28.603 29.647 28.9292L28.1005 36.2702C28.0316 36.5964 28.2405 36.9166 28.5668 36.9854Z" fill="white"/>
<path d="M9.00428 18.5626C9.31959 18.4541 9.48725 18.1105 9.37873 17.7952C9.27022 17.4799 8.9267 17.3122 8.61131 17.4207L4.15381 18.9536L4.73342 20.0313L9.00428 18.5626Z" fill="#FDC74F"/>
<path d="M6.2453 22.5295L9.25257 21.5519C9.56788 21.4433 9.73554 21.0997 9.62702 20.7844C9.51851 20.4691 9.17499 20.3015 8.8596 20.41L5.54663 21.5431L6.07718 22.5295H6.2453Z" fill="#FDC74F"/>
</g>
<defs>
<clipPath id="clip0_2_20302">
<rect width="40" height="40" fill="white"/>
</clipPath>
</defs>
</svg>
