<svg width="40" height="40" viewBox="0 0 40 40" fill="none" xmlns="http://www.w3.org/2000/svg">
<path fill-rule="evenodd" clip-rule="evenodd" d="M18.8062 11.222C18.8062 15.3579 21.3243 18.9052 24.9109 20.4155C27.1946 21.3771 26.3706 22.9905 26.4038 24.6289C26.4742 28.1045 29.1817 30.802 32.5769 30.802C35.9722 30.802 38.7501 28.0241 38.7501 24.6289C38.7501 20.1614 38.7501 15.6801 38.7501 11.222C38.75 5.71461 34.2854 1.25 28.7781 1.25C23.2708 1.25 18.8062 5.71461 18.8062 11.222Z" fill="#F76C82"/>
<path fill-rule="evenodd" clip-rule="evenodd" d="M21.8447 11.222C21.8447 7.39186 24.948 4.28857 28.7782 4.28857C32.6083 4.28857 35.7115 7.39186 35.7115 11.222V24.629C35.7115 26.347 34.295 27.7636 32.5769 27.7636C30.7811 27.7636 29.4774 26.3313 29.4417 24.5675C29.4232 23.6583 29.6343 22.9175 29.52 21.9219C29.2818 19.8461 27.9847 18.4129 26.0902 17.6151C23.5211 16.5333 21.8447 14.0176 21.8447 11.222Z" fill="#EB5463"/>
<path d="M28.5691 13.2135C29.7722 13.2135 30.7474 12.2382 30.7474 11.0352C30.7474 9.83218 29.7722 8.85693 28.5691 8.85693C27.3661 8.85693 26.3909 9.83218 26.3909 11.0352C26.3909 12.2382 27.3661 13.2135 28.5691 13.2135Z" fill="#E4E8EB"/>
<path fill-rule="evenodd" clip-rule="evenodd" d="M11.3463 17.3373C8.78634 17.3373 6.99438 15.4499 6.99438 12.2768C6.99438 9.10379 9.39532 5.84668 11.3463 5.84668C13.2974 5.84668 15.6983 9.10379 15.6983 12.2768C15.6983 15.4499 13.9063 17.3373 11.3463 17.3373Z" fill="#D5A889"/>
<path fill-rule="evenodd" clip-rule="evenodd" d="M5.60195 17.3372C3.04188 17.3372 1.25 15.4498 1.25 12.2768C1.25 9.10379 3.65094 5.84668 5.60195 5.84668C7.55289 5.84668 9.95383 9.10379 9.95383 12.2768C9.95383 15.4498 8.16195 17.3372 5.60195 17.3372Z" fill="#E1B695"/>
<path fill-rule="evenodd" clip-rule="evenodd" d="M4.08643 18.4012C4.08643 15.8412 5.97385 14.0493 9.14689 14.0493C12.3199 14.0493 15.5771 16.4503 15.5771 18.4012C15.5771 20.3522 12.3199 22.7531 9.14689 22.7531C5.97393 22.7531 4.08643 20.9612 4.08643 18.4012Z" fill="#EFC7A4"/>
<path fill-rule="evenodd" clip-rule="evenodd" d="M7.67163 30.6277L20.4562 27.5185C20.3769 25.6219 18.6351 23.8368 17.4612 24.013C12.7404 24.4335 7.90921 27.7197 7.67163 30.6277Z" fill="#E4E8EB"/>
<path fill-rule="evenodd" clip-rule="evenodd" d="M7.66331 30.6328C10.3617 29.0258 13.0266 27.3609 17.0423 27.1321C19.8053 26.9746 23.1892 28.168 26.1384 30.1129C26.2408 30.1805 26.301 30.281 26.3123 30.4032C26.3235 30.5253 26.2827 30.6352 26.1943 30.7203L24.0535 32.7835C23.8986 32.9328 23.894 33.1808 24.0433 33.3357L26.094 35.4636C26.1795 35.5523 26.2162 35.664 26.2 35.786C26.1838 35.9081 26.1192 36.0064 26.0136 36.0697C22.9845 37.8862 19.5484 38.9341 16.8278 38.7236C12.872 38.4175 10.3911 36.6839 7.57511 34.8319L4.60815 36.3963C3.06136 37.2119 1.21808 36.0766 1.25042 34.3283L1.31386 30.8965C1.34612 29.1482 3.23011 28.0817 4.74573 28.9539L7.66331 30.6328Z" fill="#CAD0D7"/>
<path fill-rule="evenodd" clip-rule="evenodd" d="M1.34386 35.0315C1.27909 34.8119 1.24581 34.5762 1.25042 34.328L1.25761 33.9377H3.28823C3.59027 33.9377 3.83511 34.1826 3.83511 34.4846C3.83511 34.7866 3.59027 35.0315 3.28823 35.0315H1.34386ZM1.27198 33.159L1.29222 32.0653H5.32847C5.6305 32.0653 5.87534 32.3101 5.87534 32.6122C5.87534 32.9142 5.6305 33.159 5.32847 33.159H1.27198ZM1.30659 31.2866L1.31378 30.8963C1.31839 30.6467 1.36089 30.4111 1.43448 30.1929H3.28823C3.59027 30.1929 3.83511 30.4377 3.83511 30.7397C3.83511 31.0418 3.59027 31.2866 3.28823 31.2866H1.30659Z" fill="#E4E8EB"/>
<path fill-rule="evenodd" clip-rule="evenodd" d="M21.1773 29.9169C20.6514 29.945 20.2479 30.394 20.276 30.9199C20.3041 31.4457 20.7532 31.8492 21.279 31.8211C21.8049 31.793 22.2084 31.344 22.1803 30.8182C22.1522 30.2924 21.7031 29.8889 21.1773 29.9169Z" fill="#E4E8EB"/>
<path fill-rule="evenodd" clip-rule="evenodd" d="M12.8417 32.9742C12.4302 33.242 12.2096 33.6759 12.2357 34.1663L12.3067 35.4947C12.3328 35.985 12.5984 36.393 13.0361 36.6155C13.4739 36.838 13.9198 36.7367 14.3714 36.5442L17.0883 35.451C16.8501 34.9042 16.7007 34.2888 16.6667 33.6197L14.177 32.9029C13.7056 32.7657 13.2532 32.7063 12.8417 32.9742Z" fill="#E4E8EB"/>
<path fill-rule="evenodd" clip-rule="evenodd" d="M16.7254 33.9736C17.0251 33.9406 17.164 34.1918 17.197 34.4914C17.2301 34.7911 17.1447 35.0257 16.8451 35.0588L15.221 35.2431C14.9214 35.2761 14.6516 35.06 14.6186 34.7603C14.5855 34.4607 14.8017 34.1909 15.1014 34.1579L16.7254 33.9736Z" fill="#CAD0D7"/>
<path fill-rule="evenodd" clip-rule="evenodd" d="M21.5292 38.0894C20.8348 38.3032 20.1465 38.4684 19.4763 38.5802C18.6941 38.1991 17.9858 37.6602 17.4231 36.9837C16.6179 36.0157 16.1118 34.773 16.1118 33.3151C16.1118 32.683 16.2083 32.0087 16.4186 31.2971C16.5035 31.008 16.8067 30.8426 17.0958 30.9276C17.3849 31.0125 17.5503 31.3157 17.4653 31.6048C17.2872 32.2073 17.2055 32.7789 17.2055 33.3151C17.2055 34.5026 17.6126 35.5086 18.2604 36.2873C18.9156 37.075 19.818 37.6376 20.7981 37.9273C21.0376 37.9981 21.2821 38.0524 21.5292 38.0894Z" fill="#A9B0BB"/>
</svg>
